<svg width="130" height="130" viewBox="0 0 130 130" fill="none" xmlns="http://www.w3.org/2000/svg">
<circle opacity="0.1" cx="65" cy="65" r="65" fill="#575757" fill-opacity="0.333333"/>
<circle cx="65" cy="65" r="45" fill="#575757" fill-opacity="0.333333"/>
<path d="M65 51.6667C57.6533 51.6667 51.6666 57.6534 51.6666 65.0001C51.6666 72.3467 57.6533 78.3334 65 78.3334C72.3466 78.3334 78.3333 72.3467 78.3333 65.0001C78.3333 57.6534 72.3466 51.6667 65 51.6667ZM71.3733 61.9334L63.8133 69.4934C63.6266 69.6801 63.3733 69.7867 63.1066 69.7867C62.84 69.7867 62.5866 69.6801 62.4 69.4934L58.6266 65.7201C58.24 65.3334 58.24 64.6934 58.6266 64.3067C59.0133 63.9201 59.6533 63.9201 60.04 64.3067L63.1066 67.3734L69.96 60.5201C70.3466 60.1334 70.9866 60.1334 71.3733 60.5201C71.76 60.9067 71.76 61.5334 71.3733 61.9334Z" fill="white"/>
</svg>
