<svg width="24" height="24" viewBox="0 0 24 24" fill="none" xmlns="http://www.w3.org/2000/svg">
<path d="M12 15C13.6569 15 15 13.6569 15 12C15 10.3431 13.6569 9 12 9C10.3431 9 9 10.3431 9 12C9 13.6569 10.3431 15 12 15Z" fill="#CACBCE"/>
<path d="M23.2591 10.6844C22.0188 8.76625 20.4095 7.13688 18.6058 5.97203C16.6103 4.68203 14.4072 4 12.235 4C10.2419 4 8.28203 4.56953 6.40984 5.69266C4.50062 6.83781 2.77094 8.51078 1.26859 10.6647C1.09899 10.9081 1.00558 11.1965 1.00024 11.4931C0.994901 11.7897 1.07786 12.0813 1.23859 12.3306C2.47656 14.268 4.06984 15.8997 5.84547 17.0486C7.84469 18.3438 9.99625 19 12.235 19C14.4245 19 16.6323 18.3236 18.6194 17.0444C20.4222 15.8833 22.0281 14.2478 23.2638 12.3137C23.4189 12.0702 23.501 11.7872 23.5002 11.4984C23.4993 11.2096 23.4157 10.9271 23.2591 10.6844ZM12.2509 16C11.3609 16 10.4909 15.7361 9.75087 15.2416C9.01085 14.7471 8.43408 14.0443 8.09348 13.2221C7.75289 12.3998 7.66377 11.495 7.8374 10.6221C8.01104 9.74918 8.43962 8.94736 9.06896 8.31802C9.69829 7.68868 10.5001 7.2601 11.373 7.08647C12.2459 6.91283 13.1507 7.00195 13.973 7.34254C14.7953 7.68314 15.4981 8.25991 15.9926 8.99993C16.487 9.73995 16.7509 10.61 16.7509 11.5C16.7496 12.6931 16.275 13.8369 15.4314 14.6805C14.5878 15.5241 13.444 15.9986 12.2509 16Z" fill="#CACBCE"/>
</svg>
