<svg width="24" height="24" viewBox="0 0 24 24" fill="none" xmlns="http://www.w3.org/2000/svg">
<path fill-rule="evenodd" clip-rule="evenodd" d="M19.9232 2.57143H23.1429C23.3702 2.57143 23.5882 2.66173 23.7489 2.82248C23.9097 2.98323 24 3.20124 24 3.42857V4.28571C24 7.20696 22.3929 10.3098 19.9007 11.0009C19.827 11.0214 19.7604 11.0617 19.7079 11.1174C19.6555 11.1732 19.6194 11.2422 19.6034 11.317C19.2943 12.7575 18.3434 14.1295 16.8493 15.2604C15.7291 16.1084 14.393 16.7325 13.192 17.0004C13.097 17.0216 13.0121 17.0746 12.9513 17.1506C12.8904 17.2265 12.8572 17.3209 12.8571 17.4182V22.0714C12.8571 22.1283 12.8797 22.1828 12.9199 22.223C12.9601 22.2631 13.0146 22.2857 13.0714 22.2857H16.2857C16.4017 22.2857 16.5166 22.3093 16.6232 22.355C16.7299 22.4007 16.8261 22.4676 16.9062 22.5516C16.9862 22.6356 17.0484 22.7349 17.0889 22.8437C17.1294 22.9524 17.1474 23.0682 17.1418 23.1841C17.1188 23.6454 16.7229 24 16.2616 24H7.71429C7.59826 24 7.48344 23.9764 7.37679 23.9307C7.27014 23.885 7.17387 23.8182 7.09383 23.7342C7.01379 23.6502 6.95164 23.5508 6.91114 23.4421C6.87063 23.3333 6.85263 23.2175 6.85821 23.1016C6.88125 22.6404 7.27714 22.2857 7.73839 22.2857H10.9286C10.9854 22.2857 11.0399 22.2631 11.0801 22.223C11.1203 22.1828 11.1429 22.1283 11.1429 22.0714V17.4182C11.1428 17.3209 11.1096 17.2265 11.0487 17.1506C10.9879 17.0746 10.903 17.0216 10.808 17.0004C9.60696 16.7336 8.27089 16.1084 7.15071 15.2604C5.65661 14.1295 4.70571 12.7575 4.39661 11.317C4.38063 11.2422 4.34447 11.1732 4.29206 11.1174C4.23965 11.0617 4.17298 11.0214 4.09929 11.0009C1.60714 10.3098 0 7.20696 0 4.28571V3.42857C0 3.20124 0.0903058 2.98323 0.251051 2.82248C0.411797 2.66173 0.629814 2.57143 0.857143 2.57143H4.08054C4.13737 2.57143 4.19187 2.54885 4.23206 2.50867C4.27224 2.46848 4.29482 2.41398 4.29482 2.35714V1.72446C4.29581 1.27101 4.47642 0.836427 4.79711 0.515838C5.1178 0.19525 5.55244 0.0147776 6.00589 0.0139285L17.9946 0C18.4486 0 18.8839 0.180022 19.2053 0.500586C19.5267 0.821151 19.7078 1.25609 19.7089 1.71V2.35714C19.7089 2.41398 19.7315 2.46848 19.7717 2.50867C19.8119 2.54885 19.8664 2.57143 19.9232 2.57143ZM4.25672 9.01152C4.27558 8.97905 4.28558 8.94219 4.28571 8.90464C4.28571 8.13394 4.28673 7.19912 4.28776 6.25105C4.2884 5.66035 4.28905 5.0645 4.28946 4.5C4.28946 4.44317 4.26689 4.38866 4.2267 4.34848C4.18652 4.30829 4.13201 4.28571 4.07518 4.28571H1.93232C1.90349 4.28569 1.87495 4.29149 1.84842 4.30276C1.82188 4.31403 1.79789 4.33053 1.77789 4.35129C1.75788 4.37205 1.74227 4.39663 1.73198 4.42356C1.7217 4.4505 1.71695 4.47923 1.71804 4.50804C1.76036 5.73804 2.14018 6.96911 2.77821 7.91679C3.01339 8.26607 3.41464 8.76214 3.96429 9.08946C3.99681 9.10824 4.03369 9.11814 4.07124 9.11817C4.10879 9.11821 4.14569 9.10837 4.17825 9.08965C4.2108 9.07094 4.23786 9.04399 4.25672 9.01152ZM20.0357 9.08946C20.5854 8.76214 20.9861 8.26607 21.2213 7.91679H21.2218C21.8598 6.96911 22.2407 5.73804 22.283 4.50804C22.2841 4.47923 22.2794 4.4505 22.2691 4.42356C22.2588 4.39663 22.2432 4.37205 22.2232 4.35129C22.2032 4.33053 22.1792 4.31403 22.1527 4.30276C22.1261 4.29149 22.0976 4.28569 22.0688 4.28571H19.9259C19.8691 4.28571 19.8146 4.30829 19.7744 4.34848C19.7342 4.38866 19.7116 4.44317 19.7116 4.5C19.7143 5.87036 19.7143 7.48393 19.7143 8.90411C19.7143 8.9417 19.7243 8.97863 19.7431 9.01117C19.7619 9.04372 19.789 9.07074 19.8215 9.08952C19.8541 9.1083 19.891 9.11818 19.9286 9.11817C19.9662 9.11816 20.0032 9.10826 20.0357 9.08946ZM14.0041 10.7048C14.0467 10.736 14.098 10.7527 14.1504 10.7525C14.19 10.7524 14.229 10.7428 14.2641 10.7243C14.2993 10.7058 14.3297 10.6791 14.3527 10.6463C14.3757 10.6135 14.3908 10.5755 14.3966 10.5356C14.4025 10.4957 14.3989 10.4549 14.3862 10.4167L13.6049 8.05505L15.6318 6.63834C15.6758 6.60763 15.7089 6.56338 15.7264 6.51206C15.7439 6.46074 15.7449 6.40505 15.7291 6.35314C15.7133 6.30124 15.6817 6.25585 15.6388 6.22363C15.5959 6.1914 15.5441 6.17403 15.4908 6.17405H12.9912L12.2368 3.80492C12.2206 3.75379 12.1889 3.70922 12.1463 3.67761C12.1037 3.64601 12.0523 3.62898 11.9996 3.62898C11.9469 3.62898 11.8956 3.64601 11.853 3.67761C11.8104 3.70922 11.7787 3.75379 11.7624 3.80492L11.0081 6.17326H8.50848C8.45528 6.1734 8.40353 6.1909 8.36077 6.22318C8.31801 6.25547 8.2865 6.30087 8.27083 6.35273C8.25516 6.40459 8.25616 6.46021 8.27368 6.51145C8.2912 6.56269 8.32432 6.60687 8.36821 6.63754L10.3943 8.05505L9.61256 10.4173C9.5956 10.4685 9.59502 10.5238 9.6109 10.5752C9.62678 10.6267 9.6583 10.6717 9.7009 10.7037C9.74349 10.7357 9.79496 10.7531 9.84786 10.7533C9.90077 10.7535 9.95236 10.7365 9.99518 10.7048L11.9996 9.22228L14.0041 10.7048Z" fill="#1A4780CC"/>
</svg>
